<svg width="21" height="20" viewBox="0 0 21 20" fill="none" xmlns="http://www.w3.org/2000/svg">
<path d="M20.0939 10C20.0939 4.47714 15.6168 -3.8147e-06 10.0939 -3.8147e-06C4.57108 -3.8147e-06 0.0939331 4.47714 0.0939331 10C0.0939331 14.9913 3.75079 19.1283 8.53143 19.8785V12.8906H5.99237V10H8.53143V7.79687C8.53143 5.29062 10.0244 3.90625 12.3086 3.90625C13.4027 3.90625 14.5471 4.10156 14.5471 4.10156V6.5625H13.2861C12.0438 6.5625 11.6564 7.33334 11.6564 8.12416V10H14.4299L13.9865 12.8906H11.6564V19.8785C16.4371 19.1283 20.0939 14.9913 20.0939 10Z" fill="#1877F2"/>
<path d="M13.9865 12.8906L14.4299 10H11.6564V8.12416C11.6564 7.33334 12.0438 6.5625 13.2861 6.5625H14.5471V4.10156C14.5471 4.10156 13.4027 3.90625 12.3086 3.90625C10.0244 3.90625 8.53143 5.29062 8.53143 7.79688V10H5.99237V12.8906H8.53143V19.8785C9.04055 19.9584 9.56237 20 10.0939 20C10.6255 20 11.1473 19.9584 11.6564 19.8785V12.8906H13.9865Z" fill="white"/>
</svg>
