<svg width="21" height="20" viewBox="0 0 21 20" fill="none" xmlns="http://www.w3.org/2000/svg">
<path d="M10.3093 0C6.13442 0 4.91341 0.0043086 4.67608 0.0239999C3.81932 0.0952365 3.28619 0.230173 2.70537 0.519421C2.25777 0.741755 1.90475 0.999466 1.55635 1.36073C0.921861 2.01955 0.537317 2.83008 0.398109 3.79355C0.330433 4.26128 0.310742 4.35667 0.306743 6.7458C0.305208 7.54218 0.306743 8.59026 0.306743 9.99607C0.306743 14.1687 0.311354 15.3888 0.331355 15.6258C0.400573 16.4597 0.531315 16.9844 0.808188 17.5583C1.33732 18.6568 2.34789 19.4815 3.53844 19.7892C3.95068 19.8954 4.40598 19.9538 4.99048 19.9815C5.23813 19.9923 7.76227 20 10.2879 20C12.8136 20 15.3393 19.9969 15.5808 19.9846C16.2576 19.9528 16.6506 19.9 17.0851 19.7877C18.2834 19.4784 19.2755 18.666 19.8154 17.5521C20.0869 16.992 20.2245 16.4474 20.2868 15.657C20.3004 15.4847 20.3061 12.7372 20.3061 9.99347C20.3061 7.24923 20.2999 4.50684 20.2864 4.33451C20.2233 3.53137 20.0856 2.99133 19.8054 2.42051C19.5754 1.95324 19.3201 1.60428 18.9494 1.24749C18.2878 0.615436 17.4788 0.230786 16.5146 0.0916989C16.0475 0.0241512 15.9544 0.00414992 13.5641 0H10.3093Z" fill="url(#paint0_radial_22_204)"/>
<path d="M10.3093 0C6.13442 0 4.91341 0.0043086 4.67608 0.0239999C3.81932 0.0952365 3.28619 0.230173 2.70537 0.519421C2.25777 0.741755 1.90475 0.999466 1.55635 1.36073C0.921861 2.01955 0.537317 2.83008 0.398109 3.79355C0.330433 4.26128 0.310742 4.35667 0.306743 6.7458C0.305208 7.54218 0.306743 8.59026 0.306743 9.99607C0.306743 14.1687 0.311354 15.3888 0.331355 15.6258C0.400573 16.4597 0.531315 16.9844 0.808188 17.5583C1.33732 18.6568 2.34789 19.4815 3.53844 19.7892C3.95068 19.8954 4.40598 19.9538 4.99048 19.9815C5.23813 19.9923 7.76227 20 10.2879 20C12.8136 20 15.3393 19.9969 15.5808 19.9846C16.2576 19.9528 16.6506 19.9 17.0851 19.7877C18.2834 19.4784 19.2755 18.666 19.8154 17.5521C20.0869 16.992 20.2245 16.4474 20.2868 15.657C20.3004 15.4847 20.3061 12.7372 20.3061 9.99347C20.3061 7.24923 20.2999 4.50684 20.2864 4.33451C20.2233 3.53137 20.0856 2.99133 19.8054 2.42051C19.5754 1.95324 19.3201 1.60428 18.9494 1.24749C18.2878 0.615436 17.4788 0.230786 16.5146 0.0916989C16.0475 0.0241512 15.9544 0.00414992 13.5641 0H10.3093Z" fill="url(#paint1_radial_22_204)"/>
<path d="M10.3093 0C6.13442 0 4.91341 0.0043086 4.67608 0.0239999C3.81932 0.0952365 3.28619 0.230173 2.70537 0.519421C2.25777 0.741755 1.90475 0.999466 1.55635 1.36073C0.921861 2.01955 0.537317 2.83008 0.398109 3.79355C0.330433 4.26128 0.310742 4.35667 0.306743 6.7458C0.305208 7.54218 0.306743 8.59026 0.306743 9.99607C0.306743 14.1687 0.311354 15.3888 0.331355 15.6258C0.400573 16.4597 0.531315 16.9844 0.808188 17.5583C1.33732 18.6568 2.34789 19.4815 3.53844 19.7892C3.95068 19.8954 4.40598 19.9538 4.99048 19.9815C5.23813 19.9923 7.76227 20 10.2879 20C12.8136 20 15.3393 19.9969 15.5808 19.9846C16.2576 19.9528 16.6506 19.9 17.0851 19.7877C18.2834 19.4784 19.2755 18.666 19.8154 17.5521C20.0869 16.992 20.2245 16.4474 20.2868 15.657C20.3004 15.4847 20.3061 12.7372 20.3061 9.99347C20.3061 7.24923 20.2999 4.50684 20.2864 4.33451C20.2233 3.53137 20.0856 2.99133 19.8054 2.42051C19.5754 1.95324 19.3201 1.60428 18.9494 1.24749C18.2878 0.615436 17.4788 0.230786 16.5146 0.0916989C16.0475 0.0241512 15.9544 0.00414992 13.5641 0H10.3093Z" fill="url(#paint2_radial_22_204)"/>
<path d="M10.3093 0C6.13442 0 4.91341 0.0043086 4.67608 0.0239999C3.81932 0.0952365 3.28619 0.230173 2.70537 0.519421C2.25777 0.741755 1.90475 0.999466 1.55635 1.36073C0.921861 2.01955 0.537317 2.83008 0.398109 3.79355C0.330433 4.26128 0.310742 4.35667 0.306743 6.7458C0.305208 7.54218 0.306743 8.59026 0.306743 9.99607C0.306743 14.1687 0.311354 15.3888 0.331355 15.6258C0.400573 16.4597 0.531315 16.9844 0.808188 17.5583C1.33732 18.6568 2.34789 19.4815 3.53844 19.7892C3.95068 19.8954 4.40598 19.9538 4.99048 19.9815C5.23813 19.9923 7.76227 20 10.2879 20C12.8136 20 15.3393 19.9969 15.5808 19.9846C16.2576 19.9528 16.6506 19.9 17.0851 19.7877C18.2834 19.4784 19.2755 18.666 19.8154 17.5521C20.0869 16.992 20.2245 16.4474 20.2868 15.657C20.3004 15.4847 20.3061 12.7372 20.3061 9.99347C20.3061 7.24923 20.2999 4.50684 20.2864 4.33451C20.2233 3.53137 20.0856 2.99133 19.8054 2.42051C19.5754 1.95324 19.3201 1.60428 18.9494 1.24749C18.2878 0.615436 17.4788 0.230786 16.5146 0.0916989C16.0475 0.0241512 15.9544 0.00414992 13.5641 0H10.3093Z" fill="url(#paint3_radial_22_204)"/>
<path d="M10.3102 2.56804C8.29062 2.56804 8.03717 2.57686 7.24398 2.61293C6.45234 2.64916 5.91198 2.77439 5.43916 2.95815C4.95008 3.14794 4.5352 3.40182 4.12188 3.81499C3.70825 4.22802 3.45418 4.64258 3.26363 5.13114C3.07927 5.60376 2.95378 6.14387 2.91815 6.93462C2.88268 7.72722 2.87338 7.98063 2.87338 9.99867C2.87338 12.0167 2.88237 12.2692 2.91831 13.0618C2.95472 13.8528 3.08005 14.3928 3.26378 14.8653C3.45387 15.354 3.70793 15.7685 4.12141 16.1816C4.53459 16.5949 4.94946 16.8494 5.43823 17.0392C5.91135 17.2229 6.45188 17.3482 7.24336 17.3844C8.03655 17.4205 8.28984 17.4293 10.3092 17.4293C12.3289 17.4293 12.5816 17.4205 13.3748 17.3844C14.1664 17.3482 14.7074 17.2229 15.1805 17.0392C15.6694 16.8494 16.0837 16.5949 16.4969 16.1816C16.9105 15.7685 17.1646 15.354 17.3551 14.8654C17.5379 14.3928 17.6634 13.8527 17.7006 13.0619C17.7362 12.2693 17.7455 12.0167 17.7455 9.99867C17.7455 7.98063 17.7362 7.72738 17.7006 6.93477C17.6634 6.14372 17.5379 5.60376 17.3551 5.1313C17.1646 4.64258 16.9105 4.22801 16.4969 3.81499C16.0832 3.40166 15.6696 3.14778 15.1801 2.95815C14.706 2.77439 14.1653 2.64916 13.3737 2.61293C12.5805 2.57686 12.328 2.56804 10.3078 2.56804H10.3102ZM9.64306 3.9071C9.84106 3.90679 10.062 3.9071 10.3102 3.9071C12.2956 3.9071 12.5309 3.91422 13.315 3.94983C14.04 3.98296 14.4335 4.10401 14.6956 4.20572C15.0426 4.3404 15.2901 4.5014 15.5502 4.76147C15.8104 5.02154 15.9715 5.26923 16.1066 5.61599C16.2084 5.87761 16.3297 6.27081 16.3627 6.9953C16.3983 7.77861 16.4061 8.01392 16.4061 9.99697C16.4061 11.98 16.3983 12.2153 16.3627 12.9986C16.3296 13.7231 16.2084 14.1163 16.1066 14.3779C15.9719 14.7247 15.8104 14.9716 15.5502 15.2315C15.2899 15.4916 15.0428 15.6526 14.6956 15.7873C14.4338 15.8895 14.04 16.0102 13.315 16.0433C12.5311 16.0789 12.2956 16.0867 10.3102 16.0867C8.32454 16.0867 8.08922 16.0789 7.30533 16.0433C6.58031 16.0099 6.18681 15.8888 5.92453 15.7871C5.57751 15.6524 5.32963 15.4914 5.06937 15.2314C4.80911 14.9713 4.64799 14.7242 4.5129 14.3773C4.41111 14.1157 4.28981 13.7225 4.25682 12.998C4.22119 12.2147 4.21406 11.9794 4.21406 9.99511C4.21406 8.01082 4.22119 7.77675 4.25682 6.99344C4.28997 6.26895 4.41111 5.87575 4.5129 5.61382C4.64767 5.26706 4.80911 5.01937 5.06937 4.7593C5.32963 4.49923 5.57751 4.33823 5.92453 4.20324C6.18665 4.10107 6.58031 3.98033 7.30533 3.94704C7.99131 3.91608 8.25716 3.90679 9.64307 3.90524L9.64306 3.9071ZM14.2795 5.14089C13.7869 5.14089 13.3872 5.53983 13.3872 6.03226C13.3872 6.52454 13.7869 6.92394 14.2795 6.92394C14.7721 6.92394 15.1719 6.52454 15.1719 6.03226C15.1719 5.53998 14.7721 5.14059 14.2795 5.14059L14.2795 5.14089ZM10.3102 6.18273C8.20123 6.18273 6.49138 7.89131 6.49138 9.99867C6.49138 12.106 8.20123 13.8138 10.3102 13.8138C12.4191 13.8138 14.1283 12.106 14.1283 9.99867C14.1283 7.89131 12.4189 6.18273 10.31 6.18273H10.3102ZM10.3102 7.52179C11.679 7.52179 12.7889 8.63066 12.7889 9.99867C12.7889 11.3665 11.679 12.4755 10.3102 12.4755C8.94113 12.4755 7.83144 11.3665 7.83144 9.99867C7.83144 8.63066 8.94113 7.52179 10.3102 7.52179Z" fill="white"/>
<defs>
<radialGradient id="paint0_radial_22_204" cx="0" cy="0" r="1" gradientUnits="userSpaceOnUse" gradientTransform="translate(19.6603 9.37425) rotate(164.25) scale(12.7789 9.20656)">
<stop stop-color="#FF005F"/>
<stop offset="1" stop-color="#FC01D8"/>
</radialGradient>
<radialGradient id="paint1_radial_22_204" cx="0" cy="0" r="1" gradientUnits="userSpaceOnUse" gradientTransform="translate(5.61841 21.5404) rotate(-90) scale(15.9644 16.9379)">
<stop stop-color="#FFCC00"/>
<stop offset="0.1242" stop-color="#FFCC00"/>
<stop offset="0.5672" stop-color="#FE4A05"/>
<stop offset="0.6942" stop-color="#FF0F3F"/>
<stop offset="1" stop-color="#FE0657" stop-opacity="0"/>
</radialGradient>
<radialGradient id="paint2_radial_22_204" cx="0" cy="0" r="1" gradientUnits="userSpaceOnUse" gradientTransform="translate(10.8115 19.7179) rotate(-59.8703) scale(6.60141 8.59429)">
<stop stop-color="#FFCC00"/>
<stop offset="1" stop-color="#FFCC00" stop-opacity="0"/>
</radialGradient>
<radialGradient id="paint3_radial_22_204" cx="0" cy="0" r="1" gradientUnits="userSpaceOnUse" gradientTransform="translate(3.01963 0.814394) rotate(164.274) scale(12.6371 4.30546)">
<stop stop-color="#780CFF"/>
<stop offset="1" stop-color="#820BFF" stop-opacity="0"/>
</radialGradient>
</defs>
</svg>
